<svg xmlns="http://www.w3.org/2000/svg" xmlns:xlink="http://www.w3.org/1999/xlink" viewBox="0,0,256,256" width="48px" height="48px" fill-rule="none"><g transform="translate(-40.96,-40.96) scale(1.32,1.32)"><g fill="none" fill-rule="none" stroke="none" stroke-width="1" stroke-linecap="butt" stroke-linejoin="miter" stroke-miterlimit="10" stroke-dasharray="" stroke-dashoffset="0" font-family="none" font-weight="none" font-size="none" text-anchor="none" style="mix-blend-mode: normal"><g transform="scale(5.33333,5.33333)"><path d="M6,13.5c0,-4.142 3.358,-7.5 7.5,-7.5h21c4.142,0 7.5,3.358 7.5,7.5v21c0,4.142 -3.358,7.5 -7.5,7.5h-21c-4.142,0 -7.5,-3.358 -7.5,-7.5z" fill="#2b7fff" fill-rule="nonzero"></path><path d="M22.925,11.486c0.809,-0.18 1.61,0.33 1.79,1.139l3,13.5c0.099,0.444 -0.01,0.909 -0.294,1.264c-0.285,0.355 -0.715,0.561 -1.17,0.561h-5.251c-0.828,0 -1.5,-0.672 -1.5,-1.5c0,-0.828 0.672,-1.5 1.5,-1.5h3.38l-2.594,-11.675c-0.18,-0.808 0.33,-1.609 1.139,-1.789zM15,16.7c0,-0.828 -0.672,-1.5 -1.5,-1.5c-0.828,0 -1.5,0.672 -1.5,1.5v4.5c0,0.828 0.672,1.5 1.5,1.5c0.828,0 1.5,-0.672 1.5,-1.5zM36,16.7c0,-0.828 -0.672,-1.5 -1.5,-1.5c-0.828,0 -1.5,0.672 -1.5,1.5v4.5c0,0.828 0.672,1.5 1.5,1.5c0.828,0 1.5,-0.672 1.5,-1.5zM35.993,27.801c-0.082,-0.824 -0.817,-1.426 -1.642,-1.343c-0.82,0.082 -1.419,0.809 -1.345,1.628l0.001,0.024c0.002,0.028 0.003,0.08 0.003,0.152c-0.001,0.145 -0.012,0.366 -0.052,0.638c-0.082,0.547 -0.282,1.267 -0.747,1.983c-0.87,1.338 -2.945,3.068 -8.211,3.068c-0.828,0 -1.5,0.672 -1.5,1.5c0,0.828 0.672,1.5 1.5,1.5c5.984,0 9.159,-2.021 10.726,-4.432c0.754,-1.159 1.069,-2.313 1.199,-3.173c0.065,-0.431 0.083,-0.796 0.085,-1.061c0.001,-0.133 -0.002,-0.242 -0.006,-0.324c-0.002,-0.041 -0.004,-0.075 -0.006,-0.101l-0.003,-0.034l-0.001,-0.013l-0.001,-0.005v-0.002c0,-0.004 0,-0.005 0,-0.005z" fill="#ffffff" fill-rule="evenodd"></path></g></g></g></svg>